<?xml version="1.0" encoding="UTF-8" standalone="no"?>
<!DOCTYPE svg PUBLIC "-//W3C//DTD SVG 1.1//EN"
 "http://www.w3.org/Graphics/SVG/1.1/DTD/svg11.dtd">
<!-- Generated by graphviz version 2.43.0 (0)
 -->
<!-- Title: Architecture Pages: 1 -->
<svg width="675pt" height="554pt"
 viewBox="0.00 0.00 675.00 554.00" xmlns="http://www.w3.org/2000/svg" xmlns:xlink="http://www.w3.org/1999/xlink">
<g id="graph0" class="graph" transform="scale(1 1) rotate(0) translate(4 550)">
<title>Architecture</title>
<polygon fill="white" stroke="transparent" points="-4,4 -4,-550 671,-550 671,4 -4,4"/>
<text text-anchor="middle" x="333.5" y="-526" font-family="Arial" font-size="20.00">Архитектура Consul Cluster + DNS</text>
<g id="clust1" class="cluster">
<title>cluster_servers</title>
<polygon fill="#e6f4ea" stroke="black" points="8,-8 8,-351.5 301,-351.5 301,-8 8,-8"/>
<text text-anchor="middle" x="154.5" y="-337.1" font-family="Arial" font-size="13.00">Consul Servers (Raft)</text>
</g>
<g id="clust2" class="cluster">
<title>cluster_clients</title>
<polygon fill="#fff3e0" stroke="black" points="46,-429 46,-508 518,-508 518,-429 46,-429"/>
<text text-anchor="middle" x="282" y="-493.6" font-family="Arial" font-size="13.00">Consul Clients + WebApp</text>
</g>
<g id="clust3" class="cluster">
<title>cluster_dns_block</title>
<polygon fill="#e8f0fe" stroke="black" points="342,-250 342,-374 645,-374 645,-250 342,-250"/>
<text text-anchor="middle" x="493.5" y="-359.6" font-family="Arial" font-size="13.00">DNS Resolution</text>
</g>
<!-- cs1 -->
<g id="node1" class="node">
<title>cs1</title>
<polygon fill="#a5d6a7" stroke="black" points="227,-321.5 147,-321.5 147,-280.5 227,-280.5 227,-321.5"/>
<text text-anchor="middle" x="187" y="-309.5" font-family="Arial" font-size="10.00">consul&#45;server1</text>
<text text-anchor="middle" x="187" y="-298.5" font-family="Arial" font-size="10.00">.122.91</text>
<text text-anchor="middle" x="187" y="-287.5" font-family="Arial" font-size="10.00">(Leader)</text>
</g>
<!-- cs2 -->
<g id="node2" class="node">
<title>cs2</title>
<polygon fill="#c8e6c9" stroke="black" points="96,-178 16,-178 16,-137 96,-137 96,-178"/>
<text text-anchor="middle" x="56" y="-166" font-family="Arial" font-size="10.00">consul&#45;server2</text>
<text text-anchor="middle" x="56" y="-155" font-family="Arial" font-size="10.00">.122.92</text>
<text text-anchor="middle" x="56" y="-144" font-family="Arial" font-size="10.00">(Follower)</text>
</g>
<!-- cs1&#45;&gt;cs2 -->
<g id="edge1" class="edge">
<title>cs1&#45;&gt;cs2</title>
<path fill="none" stroke="#34a853" d="M136.97,-301C136.97,-301 75.25,-301 75.25,-301 75.25,-301 75.25,-188.06 75.25,-188.06"/>
<polygon fill="#34a853" stroke="#34a853" points="136.97,-304.5 146.97,-301 136.97,-297.5 136.97,-304.5"/>
<polygon fill="#34a853" stroke="#34a853" points="78.75,-188.06 75.25,-178.06 71.75,-188.06 78.75,-188.06"/>
<text text-anchor="middle" x="140.5" y="-221.8" font-family="Times,serif" font-size="14.00">Raft</text>
<text text-anchor="middle" x="140.5" y="-206.8" font-family="Times,serif" font-size="14.00">Replication</text>
</g>
<!-- dns -->
<g id="node7" class="node">
<title>dns</title>
<polygon fill="#bbdefb" stroke="black" points="493.5,-344 350.5,-344 350.5,-258 493.5,-258 493.5,-344"/>
<text text-anchor="middle" x="422" y="-332" font-family="Arial" font-size="10.00">Consul DNS :8600</text>
<text text-anchor="middle" x="422" y="-321" font-family="Arial" font-size="10.00">webapp.service.consul</text>
<text text-anchor="middle" x="422" y="-310" font-family="Arial" font-size="10.00">→ A: .101, .102, .103</text>
<text text-anchor="middle" x="422" y="-287" font-family="Arial" font-size="10.00">External&#45;DNS скрипт</text>
<text text-anchor="middle" x="422" y="-276" font-family="Arial" font-size="10.00">→ BIND зона</text>
<text text-anchor="middle" x="422" y="-265" font-family="Arial" font-size="10.00">→ webapp.diveschool.spb.ru</text>
</g>
<!-- cs1&#45;&gt;dns -->
<g id="edge7" class="edge">
<title>cs1&#45;&gt;dns</title>
<path fill="none" stroke="#4285f4" stroke-width="2" d="M227.13,-294C227.13,-294 340.21,-294 340.21,-294"/>
<polygon fill="#4285f4" stroke="#4285f4" stroke-width="2" points="340.21,-297.5 350.21,-294 340.21,-290.5 340.21,-297.5"/>
</g>
<!-- cs3 -->
<g id="node3" class="node">
<title>cs3</title>
<polygon fill="#c8e6c9" stroke="black" points="195,-57 115,-57 115,-16 195,-16 195,-57"/>
<text text-anchor="middle" x="155" y="-45" font-family="Arial" font-size="10.00">consul&#45;server3</text>
<text text-anchor="middle" x="155" y="-34" font-family="Arial" font-size="10.00">.122.93</text>
<text text-anchor="middle" x="155" y="-23" font-family="Arial" font-size="10.00">(Follower)</text>
</g>
<!-- cs2&#45;&gt;cs3 -->
<g id="edge2" class="edge">
<title>cs2&#45;&gt;cs3</title>
<path fill="none" stroke="#34a853" d="M106.13,-157C106.13,-157 131,-157 131,-157 131,-157 131,-67.21 131,-67.21"/>
<polygon fill="#34a853" stroke="#34a853" points="106.13,-153.5 96.13,-157 106.13,-160.5 106.13,-153.5"/>
<polygon fill="#34a853" stroke="#34a853" points="134.5,-67.21 131,-57.21 127.5,-67.21 134.5,-67.21"/>
<text text-anchor="middle" x="139.5" y="-100.8" font-family="Times,serif" font-size="14.00">Raft</text>
<text text-anchor="middle" x="139.5" y="-85.8" font-family="Times,serif" font-size="14.00">Replication</text>
</g>
<!-- cs3&#45;&gt;cs1 -->
<g id="edge3" class="edge">
<title>cs3&#45;&gt;cs1</title>
<path fill="none" stroke="#34a853" d="M171,-67.25C171,-67.25 171,-270.34 171,-270.34"/>
<polygon fill="#34a853" stroke="#34a853" points="167.5,-270.34 171,-280.34 174.5,-270.34 167.5,-270.34"/>
<polygon fill="#34a853" stroke="#34a853" points="174.5,-67.25 171,-57.25 167.5,-67.25 174.5,-67.25"/>
<text text-anchor="middle" x="252.5" y="-161.3" font-family="Times,serif" font-size="14.00">Raft</text>
<text text-anchor="middle" x="252.5" y="-146.3" font-family="Times,serif" font-size="14.00">Replication</text>
</g>
<!-- w1 -->
<g id="node4" class="node">
<title>w1</title>
<polygon fill="#ffe0b2" stroke="black" points="509.5,-478 396.5,-478 396.5,-437 509.5,-437 509.5,-478"/>
<text text-anchor="middle" x="453" y="-466" font-family="Arial" font-size="10.00">web&#45;node1</text>
<text text-anchor="middle" x="453" y="-455" font-family="Arial" font-size="10.00">.122.101</text>
<text text-anchor="middle" x="453" y="-444" font-family="Arial" font-size="10.00">Nginx + Consul Client</text>
</g>
<!-- w1&#45;&gt;cs1 -->
<g id="edge4" class="edge">
<title>w1&#45;&gt;cs1</title>
<path fill="none" stroke="#fb8c00" d="M396.21,-457C369.96,-457 344.5,-457 344.5,-457 344.5,-457 344.5,-307 344.5,-307 344.5,-307 237.15,-307 237.15,-307"/>
<polygon fill="#fb8c00" stroke="#fb8c00" points="237.15,-303.5 227.15,-307 237.15,-310.5 237.15,-303.5"/>
<text text-anchor="middle" x="331" y="-400.8" font-family="Times,serif" font-size="14.00">Регистрация</text>
<text text-anchor="middle" x="331" y="-385.8" font-family="Times,serif" font-size="14.00">сервиса webapp</text>
</g>
<!-- health -->
<g id="node8" class="node">
<title>health</title>
<polygon fill="#ffcdd2" stroke="black" points="630.5,-327 551.5,-327 551.5,-275 636.5,-275 636.5,-321 630.5,-327"/>
<polyline fill="none" stroke="black" points="630.5,-327 630.5,-321 "/>
<polyline fill="none" stroke="black" points="636.5,-321 630.5,-321 "/>
<text text-anchor="middle" x="594" y="-315" font-family="Arial" font-size="10.00">Health Check</text>
<text text-anchor="middle" x="594" y="-304" font-family="Arial" font-size="10.00">HTTP :80/</text>
<text text-anchor="middle" x="594" y="-293" font-family="Arial" font-size="10.00">каждые 10 сек</text>
<text text-anchor="middle" x="594" y="-282" font-family="Arial" font-size="10.00">интервал 2 сек</text>
</g>
<!-- w1&#45;&gt;health -->
<g id="edge9" class="edge">
<title>w1&#45;&gt;health</title>
<path fill="none" stroke="black" d="M501.5,-436.72C501.5,-394.15 501.5,-301 501.5,-301 501.5,-301 541.27,-301 541.27,-301"/>
<polygon fill="black" stroke="black" points="541.27,-304.5 551.27,-301 541.27,-297.5 541.27,-304.5"/>
<text text-anchor="middle" x="630.5" y="-393.3" font-family="Times,serif" font-size="14.00">Проверка</text>
</g>
<!-- w2 -->
<g id="node5" class="node">
<title>w2</title>
<polygon fill="#ffe0b2" stroke="black" points="167.5,-478 54.5,-478 54.5,-437 167.5,-437 167.5,-478"/>
<text text-anchor="middle" x="111" y="-466" font-family="Arial" font-size="10.00">web&#45;node2</text>
<text text-anchor="middle" x="111" y="-455" font-family="Arial" font-size="10.00">.122.102</text>
<text text-anchor="middle" x="111" y="-444" font-family="Arial" font-size="10.00">Nginx + Consul Client</text>
</g>
<!-- w2&#45;&gt;cs1 -->
<g id="edge5" class="edge">
<title>w2&#45;&gt;cs1</title>
<path fill="none" stroke="#fb8c00" d="M157.25,-436.72C157.25,-436.72 157.25,-331.87 157.25,-331.87"/>
<polygon fill="#fb8c00" stroke="#fb8c00" points="160.75,-331.87 157.25,-321.87 153.75,-331.87 160.75,-331.87"/>
</g>
<!-- w3 -->
<g id="node6" class="node">
<title>w3</title>
<polygon fill="#ffe0b2" stroke="black" points="338.5,-478 225.5,-478 225.5,-437 338.5,-437 338.5,-478"/>
<text text-anchor="middle" x="282" y="-466" font-family="Arial" font-size="10.00">web&#45;node3</text>
<text text-anchor="middle" x="282" y="-455" font-family="Arial" font-size="10.00">.122.103</text>
<text text-anchor="middle" x="282" y="-444" font-family="Arial" font-size="10.00">Nginx + Consul Client</text>
</g>
<!-- w3&#45;&gt;cs1 -->
<g id="edge6" class="edge">
<title>w3&#45;&gt;cs1</title>
<path fill="none" stroke="#fb8c00" d="M225.45,-457C209.55,-457 196.5,-457 196.5,-457 196.5,-457 196.5,-331.72 196.5,-331.72"/>
<polygon fill="#fb8c00" stroke="#fb8c00" points="200,-331.72 196.5,-321.72 193,-331.72 200,-331.72"/>
</g>
<!-- dns&#45;&gt;w1 -->
<g id="edge8" class="edge">
<title>dns&#45;&gt;w1</title>
<path fill="none" stroke="#4285f4" d="M445,-344.18C445,-344.18 445,-426.89 445,-426.89"/>
<polygon fill="#4285f4" stroke="#4285f4" points="441.5,-426.89 445,-436.89 448.5,-426.89 441.5,-426.89"/>
<text text-anchor="middle" x="492" y="-393.3" font-family="Times,serif" font-size="14.00">DNS&#45;ответ</text>
</g>
</g>
</svg>
