<?xml version="1.0" encoding="UTF-8" standalone="no"?>
<!DOCTYPE svg PUBLIC "-//W3C//DTD SVG 1.1//EN"
 "http://www.w3.org/Graphics/SVG/1.1/DTD/svg11.dtd">
<!-- Generated by graphviz version 2.43.0 (0)
 -->
<!-- Title: CGNAT_Problem Pages: 1 -->
<svg width="623pt" height="682pt"
 viewBox="0.00 0.00 623.00 682.48" xmlns="http://www.w3.org/2000/svg" xmlns:xlink="http://www.w3.org/1999/xlink">
<g id="graph0" class="graph" transform="scale(1 1) rotate(0) translate(4 678.48)">
<title>CGNAT_Problem</title>
<polygon fill="white" stroke="transparent" points="-4,4 -4,-678.48 619,-678.48 619,4 -4,4"/>
<text text-anchor="middle" x="307.5" y="-656.08" font-family="Arial" font-size="18.00">CGNAT: почему VPS не может подключиться к домашнему KVM</text>
<g id="clust1" class="cluster">
<title>cluster_home</title>
<polygon fill="#fce8e6" stroke="black" points="291,-435.48 291,-638.48 441,-638.48 441,-435.48 291,-435.48"/>
<text text-anchor="middle" x="366" y="-624.08" font-family="Arial" font-size="13.00">Домашняя сеть</text>
</g>
<g id="clust2" class="cluster">
<title>cluster_isp</title>
<polygon fill="#fff3e0" stroke="black" points="90,-156 90,-342.48 284,-342.48 284,-156 90,-156"/>
<text text-anchor="middle" x="187" y="-328.08" font-family="Arial" font-size="13.00">Провайдер (CGNAT)</text>
</g>
<g id="clust3" class="cluster">
<title>cluster_internet</title>
<polygon fill="#e8f0fe" stroke="black" points="38,-424.48 38,-525.48 160,-525.48 160,-424.48 38,-424.48"/>
<text text-anchor="middle" x="99" y="-511.08" font-family="Arial" font-size="13.00">Интернет</text>
</g>
<!-- router -->
<g id="node1" class="node">
<title>router</title>
<polygon fill="#ffcdd2" stroke="black" points="433,-484.48 299,-484.48 299,-443.48 433,-443.48 433,-484.48"/>
<text text-anchor="middle" x="366" y="-472.48" font-family="Arial" font-size="10.00">Маршрутизатор</text>
<text text-anchor="middle" x="366" y="-461.48" font-family="Arial" font-size="10.00">10.57.30.54</text>
<text text-anchor="middle" x="366" y="-450.48" font-family="Arial" font-size="10.00">(приватный IP от CGNAT)</text>
</g>
<!-- cgnat -->
<g id="node3" class="node">
<title>cgnat</title>
<polygon fill="#ffe0b2" stroke="black" points="275.57,-207.39 275.57,-269.09 223.69,-312.72 150.31,-312.72 98.43,-269.09 98.43,-207.39 150.31,-163.76 223.69,-163.76 275.57,-207.39"/>
<text text-anchor="middle" x="187" y="-274.74" font-family="Arial" font-size="10.00">CGNAT Шлюз</text>
<text text-anchor="middle" x="187" y="-263.74" font-family="Arial" font-size="10.00">10.57.30.1</text>
<text text-anchor="middle" x="187" y="-252.74" font-family="Arial" font-size="10.00">188.130.149.164</text>
<text text-anchor="middle" x="187" y="-241.74" font-family="Arial" font-size="10.00">(серый IP)</text>
<text text-anchor="middle" x="187" y="-218.74" font-family="Arial" font-size="10.00">NAT второго уровня</text>
<text text-anchor="middle" x="187" y="-207.74" font-family="Arial" font-size="10.00">Несколько абонентов</text>
<text text-anchor="middle" x="187" y="-196.74" font-family="Arial" font-size="10.00">за одним IP</text>
</g>
<!-- router&#45;&gt;cgnat -->
<g id="edge2" class="edge">
<title>router&#45;&gt;cgnat</title>
<path fill="none" stroke="#34a853" d="M298.72,-470C250.22,-470 193.26,-470 193.26,-470 193.26,-470 193.26,-322.53 193.26,-322.53"/>
<polygon fill="#34a853" stroke="#34a853" points="196.76,-322.53 193.26,-312.53 189.76,-322.53 196.76,-322.53"/>
<text text-anchor="middle" x="334.5" y="-384.28" font-family="Times,serif" font-size="14.00">UDP :51820</text>
<text text-anchor="middle" x="334.5" y="-369.28" font-family="Times,serif" font-size="14.00">(исходящие)</text>
</g>
<!-- kvm -->
<g id="node2" class="node">
<title>kvm</title>
<polygon fill="#ffcdd2" stroke="black" points="407,-608.48 325,-608.48 325,-556.48 407,-556.48 407,-608.48"/>
<text text-anchor="middle" x="366" y="-596.48" font-family="Arial" font-size="10.00">KVM Хост</text>
<text text-anchor="middle" x="366" y="-585.48" font-family="Arial" font-size="10.00">192.168.122.1</text>
<text text-anchor="middle" x="366" y="-574.48" font-family="Arial" font-size="10.00">Consul Cluster</text>
<text text-anchor="middle" x="366" y="-563.48" font-family="Arial" font-size="10.00">Web Servers</text>
</g>
<!-- kvm&#45;&gt;router -->
<g id="edge1" class="edge">
<title>kvm&#45;&gt;router</title>
<path fill="none" stroke="black" d="M366,-556.48C366,-556.48 366,-494.8 366,-494.8"/>
<polygon fill="black" stroke="black" points="369.5,-494.8 366,-484.8 362.5,-494.8 369.5,-494.8"/>
</g>
<!-- cgnat&#45;&gt;router -->
<g id="edge5" class="edge">
<title>cgnat&#45;&gt;router</title>
<path fill="none" stroke="#ea4335" stroke-width="2" stroke-dasharray="5,2" d="M234.52,-303.88C234.52,-368.31 234.52,-457 234.52,-457 234.52,-457 288.72,-457 288.72,-457"/>
<polygon fill="#ea4335" stroke="#ea4335" stroke-width="2" points="288.72,-460.5 298.72,-457 288.72,-453.5 288.72,-460.5"/>
<text text-anchor="middle" x="529" y="-399.28" font-family="Times,serif" font-size="14.00">CGNAT отбрасывает</text>
<text text-anchor="middle" x="529" y="-384.28" font-family="Times,serif" font-size="14.00">входящий UDP</text>
<text text-anchor="middle" x="529" y="-369.28" font-family="Times,serif" font-size="14.00">Нет правила NAT</text>
<text text-anchor="middle" x="529" y="-354.28" font-family="Times,serif" font-size="14.00">для обратного трафика</text>
</g>
<!-- vps -->
<g id="node4" class="node">
<title>vps</title>
<polygon fill="#bbdefb" stroke="black" points="152,-495.48 46,-495.48 46,-432.48 152,-432.48 152,-495.48"/>
<text text-anchor="middle" x="99" y="-483.48" font-family="Arial" font-size="10.00">VPS</text>
<text text-anchor="middle" x="99" y="-472.48" font-family="Arial" font-size="10.00">170.168.91.95</text>
<text text-anchor="middle" x="99" y="-461.48" font-family="Arial" font-size="10.00">Публичный IP</text>
<text text-anchor="middle" x="99" y="-450.48" font-family="Arial" font-size="10.00">Порт 51820 открыт</text>
<text text-anchor="middle" x="99" y="-439.48" font-family="Arial" font-size="10.00">WireGuard слушает</text>
</g>
<!-- cgnat&#45;&gt;vps -->
<g id="edge3" class="edge">
<title>cgnat&#45;&gt;vps</title>
<path fill="none" stroke="#34a853" stroke-width="2" d="M116.14,-284.19C116.14,-284.19 116.14,-422.26 116.14,-422.26"/>
<polygon fill="#34a853" stroke="#34a853" stroke-width="2" points="112.65,-422.26 116.14,-432.26 119.65,-422.26 112.65,-422.26"/>
<text text-anchor="middle" x="40" y="-384.28" font-family="Times,serif" font-size="14.00">UDP пакет</text>
<text text-anchor="middle" x="40" y="-369.28" font-family="Times,serif" font-size="14.00">доходит ✅</text>
</g>
<!-- note -->
<g id="node5" class="node">
<title>note</title>
<polygon fill="#ffcdd2" stroke="black" points="264,-119 104,-119 104,0 270,0 270,-113 264,-119"/>
<polyline fill="none" stroke="black" points="264,-119 264,-113 "/>
<polyline fill="none" stroke="black" points="270,-113 264,-113 "/>
<text text-anchor="middle" x="187" y="-107" font-family="Arial" font-size="10.00">WireGuard требует</text>
<text text-anchor="middle" x="187" y="-96" font-family="Arial" font-size="10.00">ДВУСТОРОННЕГО обмена UDP.</text>
<text text-anchor="middle" x="187" y="-85" font-family="Arial" font-size="10.00">CGNAT пропускает исходящие,</text>
<text text-anchor="middle" x="187" y="-74" font-family="Arial" font-size="10.00">но блокирует ВХОДЯЩИЕ</text>
<text text-anchor="middle" x="187" y="-63" font-family="Arial" font-size="10.00">пакеты.</text>
<text text-anchor="middle" x="187" y="-40" font-family="Arial" font-size="10.00">Решение для провайдера:</text>
<text text-anchor="middle" x="187" y="-29" font-family="Arial" font-size="10.00">Выделить белый IP</text>
<text text-anchor="middle" x="187" y="-18" font-family="Arial" font-size="10.00">или настроить</text>
<text text-anchor="middle" x="187" y="-7" font-family="Arial" font-size="10.00">Port Forwarding.</text>
</g>
<!-- cgnat&#45;&gt;note -->
<g id="edge6" class="edge">
<title>cgnat&#45;&gt;note</title>
<path fill="none" stroke="black" stroke-dasharray="5,2" d="M187,-163.99C187,-163.99 187,-129.1 187,-129.1"/>
<polygon fill="black" stroke="black" points="190.5,-129.1 187,-119.1 183.5,-129.1 190.5,-129.1"/>
</g>
<!-- vps&#45;&gt;cgnat -->
<g id="edge4" class="edge">
<title>vps&#45;&gt;cgnat</title>
<path fill="none" stroke="#ea4335" stroke-width="2" d="M134.07,-432.12C134.07,-432.12 134.07,-309.26 134.07,-309.26"/>
<polygon fill="#ea4335" stroke="#ea4335" stroke-width="2" points="137.57,-309.26 134.07,-299.26 130.57,-309.26 137.57,-309.26"/>
<text text-anchor="middle" x="184.5" y="-384.28" font-family="Times,serif" font-size="14.00">UDP ответ</text>
<text text-anchor="middle" x="184.5" y="-369.28" font-family="Times,serif" font-size="14.00">(входящие)</text>
</g>
</g>
</svg>
