<?xml version="1.0" encoding="UTF-8" standalone="no"?>
<!DOCTYPE svg PUBLIC "-//W3C//DTD SVG 1.1//EN"
 "http://www.w3.org/Graphics/SVG/1.1/DTD/svg11.dtd">
<!-- Generated by graphviz version 2.43.0 (0)
 -->
<!-- Title: Challenges Pages: 1 -->
<svg width="217pt" height="735pt"
 viewBox="0.00 0.00 217.00 735.00" xmlns="http://www.w3.org/2000/svg" xmlns:xlink="http://www.w3.org/1999/xlink">
<g id="graph0" class="graph" transform="scale(1 1) rotate(0) translate(4 731)">
<title>Challenges</title>
<polygon fill="white" stroke="transparent" points="-4,4 -4,-731 213,-731 213,4 -4,4"/>
<text text-anchor="middle" x="104.5" y="-708.6" font-family="Arial" font-size="18.00">Пройденные трудности</text>
<!-- start -->
<g id="node1" class="node">
<title>start</title>
<ellipse fill="#e8f0fe" stroke="black" cx="104.5" cy="-681" rx="30.04" ry="18"/>
<text text-anchor="middle" x="104.5" y="-678.5" font-family="Arial" font-size="10.00">Начало</text>
</g>
<!-- p1 -->
<g id="node2" class="node">
<title>p1</title>
<polygon fill="#ffcdd2" stroke="black" points="159,-627 50,-627 50,-591 159,-591 159,-627"/>
<text text-anchor="middle" x="104.5" y="-612" font-family="Arial" font-size="10.00">Consul 1.18.1 — 404</text>
<text text-anchor="middle" x="104.5" y="-601" font-family="Arial" font-size="10.00">Ссылка устарела</text>
</g>
<!-- start&#45;&gt;p1 -->
<g id="edge1" class="edge">
<title>start&#45;&gt;p1</title>
<path fill="none" stroke="black" d="M104.5,-662.83C104.5,-662.83 104.5,-637.41 104.5,-637.41"/>
<polygon fill="black" stroke="black" points="108,-637.41 104.5,-627.41 101,-637.41 108,-637.41"/>
</g>
<!-- s1 -->
<g id="node3" class="node">
<title>s1</title>
<polygon fill="#c8e6c9" stroke="black" points="147.5,-555 61.5,-555 61.5,-519 147.5,-519 147.5,-555"/>
<text text-anchor="middle" x="104.5" y="-540" font-family="Arial" font-size="10.00">Скачали 1.18.0</text>
<text text-anchor="middle" x="104.5" y="-529" font-family="Arial" font-size="10.00">через браузер</text>
</g>
<!-- p1&#45;&gt;s1 -->
<g id="edge2" class="edge">
<title>p1&#45;&gt;s1</title>
<path fill="none" stroke="black" d="M104.5,-590.83C104.5,-590.83 104.5,-565.41 104.5,-565.41"/>
<polygon fill="black" stroke="black" points="108,-565.41 104.5,-555.41 101,-565.41 108,-565.41"/>
</g>
<!-- p2 -->
<g id="node4" class="node">
<title>p2</title>
<polygon fill="#ffcdd2" stroke="black" points="168.5,-483 40.5,-483 40.5,-442 168.5,-442 168.5,-483"/>
<text text-anchor="middle" x="104.5" y="-471" font-family="Arial" font-size="10.00">Пользователь consul</text>
<text text-anchor="middle" x="104.5" y="-460" font-family="Arial" font-size="10.00">не существовал</text>
<text text-anchor="middle" x="104.5" y="-449" font-family="Arial" font-size="10.00">до создания директорий</text>
</g>
<!-- s1&#45;&gt;p2 -->
<g id="edge3" class="edge">
<title>s1&#45;&gt;p2</title>
<path fill="none" stroke="black" d="M104.5,-518.97C104.5,-518.97 104.5,-493.27 104.5,-493.27"/>
<polygon fill="black" stroke="black" points="108,-493.27 104.5,-483.27 101,-493.27 108,-493.27"/>
</g>
<!-- s2 -->
<g id="node5" class="node">
<title>s2</title>
<polygon fill="#c8e6c9" stroke="black" points="157.5,-406 51.5,-406 51.5,-370 157.5,-370 157.5,-406"/>
<text text-anchor="middle" x="104.5" y="-391" font-family="Arial" font-size="10.00">Поменяли порядок:</text>
<text text-anchor="middle" x="104.5" y="-380" font-family="Arial" font-size="10.00">user → directories</text>
</g>
<!-- p2&#45;&gt;s2 -->
<g id="edge4" class="edge">
<title>p2&#45;&gt;s2</title>
<path fill="none" stroke="black" d="M104.5,-441.75C104.5,-441.75 104.5,-416.11 104.5,-416.11"/>
<polygon fill="black" stroke="black" points="108,-416.11 104.5,-406.11 101,-416.11 108,-416.11"/>
</g>
<!-- p3 -->
<g id="node6" class="node">
<title>p3</title>
<polygon fill="#ffcdd2" stroke="black" points="160.5,-334 48.5,-334 48.5,-293 160.5,-293 160.5,-334"/>
<text text-anchor="middle" x="104.5" y="-322" font-family="Arial" font-size="10.00">WireGuard: CGNAT</text>
<text text-anchor="middle" x="104.5" y="-311" font-family="Arial" font-size="10.00">блокирует входящие</text>
<text text-anchor="middle" x="104.5" y="-300" font-family="Arial" font-size="10.00">UDP пакеты</text>
</g>
<!-- s2&#45;&gt;p3 -->
<g id="edge5" class="edge">
<title>s2&#45;&gt;p3</title>
<path fill="none" stroke="black" d="M104.5,-369.97C104.5,-369.97 104.5,-344.27 104.5,-344.27"/>
<polygon fill="black" stroke="black" points="108,-344.27 104.5,-334.27 101,-344.27 108,-344.27"/>
</g>
<!-- s3 -->
<g id="node7" class="node">
<title>s3</title>
<polygon fill="#c8e6c9" stroke="black" points="159.5,-257 49.5,-257 49.5,-216 159.5,-216 159.5,-257"/>
<text text-anchor="middle" x="104.5" y="-245" font-family="Arial" font-size="10.00">External&#45;DNS скрипт</text>
<text text-anchor="middle" x="104.5" y="-234" font-family="Arial" font-size="10.00">вместо прямого</text>
<text text-anchor="middle" x="104.5" y="-223" font-family="Arial" font-size="10.00">туннеля</text>
</g>
<!-- p3&#45;&gt;s3 -->
<g id="edge6" class="edge">
<title>p3&#45;&gt;s3</title>
<path fill="none" stroke="black" d="M104.5,-292.87C104.5,-292.87 104.5,-267.19 104.5,-267.19"/>
<polygon fill="black" stroke="black" points="108,-267.19 104.5,-257.19 101,-267.19 108,-267.19"/>
</g>
<!-- p4 -->
<g id="node8" class="node">
<title>p4</title>
<polygon fill="#ffcdd2" stroke="black" points="151,-180 58,-180 58,-144 151,-144 151,-180"/>
<text text-anchor="middle" x="104.5" y="-165" font-family="Arial" font-size="10.00">web&#45;node3: unzip</text>
<text text-anchor="middle" x="104.5" y="-154" font-family="Arial" font-size="10.00">не установился</text>
</g>
<!-- s3&#45;&gt;p4 -->
<g id="edge7" class="edge">
<title>s3&#45;&gt;p4</title>
<path fill="none" stroke="black" d="M104.5,-215.75C104.5,-215.75 104.5,-190.11 104.5,-190.11"/>
<polygon fill="black" stroke="black" points="108,-190.11 104.5,-180.11 101,-190.11 108,-190.11"/>
</g>
<!-- s4 -->
<g id="node9" class="node">
<title>s4</title>
<polygon fill="#c8e6c9" stroke="black" points="155,-108 54,-108 54,-72 155,-72 155,-108"/>
<text text-anchor="middle" x="104.5" y="-93" font-family="Arial" font-size="10.00">Повторный запуск</text>
<text text-anchor="middle" x="104.5" y="-82" font-family="Arial" font-size="10.00">Ansible &#45;&#45;limit</text>
</g>
<!-- p4&#45;&gt;s4 -->
<g id="edge8" class="edge">
<title>p4&#45;&gt;s4</title>
<path fill="none" stroke="black" d="M104.5,-143.83C104.5,-143.83 104.5,-118.41 104.5,-118.41"/>
<polygon fill="black" stroke="black" points="108,-118.41 104.5,-108.41 101,-118.41 108,-118.41"/>
</g>
<!-- success -->
<g id="node10" class="node">
<title>success</title>
<ellipse fill="#a5d6a7" stroke="black" stroke-width="2" cx="104.5" cy="-18" rx="47.86" ry="18"/>
<text text-anchor="middle" x="104.5" y="-15.5" font-family="Arial" font-size="10.00">Всё работает!</text>
</g>
<!-- s4&#45;&gt;success -->
<g id="edge9" class="edge">
<title>s4&#45;&gt;success</title>
<path fill="none" stroke="black" d="M104.5,-71.83C104.5,-71.83 104.5,-46.41 104.5,-46.41"/>
<polygon fill="black" stroke="black" points="108,-46.41 104.5,-36.41 101,-46.41 108,-46.41"/>
</g>
</g>
</svg>
