<?xml version="1.0" encoding="UTF-8" standalone="no"?>
<!DOCTYPE svg PUBLIC "-//W3C//DTD SVG 1.1//EN"
 "http://www.w3.org/Graphics/SVG/1.1/DTD/svg11.dtd">
<!-- Generated by graphviz version 2.43.0 (0)
 -->
<!-- Title: DNS_Flow Pages: 1 -->
<svg width="330pt" height="362pt"
 viewBox="0.00 0.00 330.00 362.00" xmlns="http://www.w3.org/2000/svg" xmlns:xlink="http://www.w3.org/1999/xlink">
<g id="graph0" class="graph" transform="scale(1 1) rotate(0) translate(4 358)">
<title>DNS_Flow</title>
<polygon fill="white" stroke="transparent" points="-4,4 -4,-358 326,-358 326,4 -4,4"/>
<text text-anchor="middle" x="161" y="-334" font-family="Arial" font-size="20.00">Путь DNS&#45;запроса к веб&#45;порталу</text>
<!-- s1 -->
<g id="node1" class="node">
<title>s1</title>
<polygon fill="#e8f0fe" stroke="black" points="225,-324 97,-324 97,-288 225,-288 225,-324"/>
<text text-anchor="middle" x="161" y="-308.8" font-family="Arial" font-size="9.00">1. Клиент</text>
<text text-anchor="middle" x="161" y="-298.8" font-family="Arial" font-size="9.00">curl webapp.service.consul</text>
</g>
<!-- s2 -->
<g id="node2" class="node">
<title>s2</title>
<polygon fill="#fff3e0" stroke="black" points="206,-259 116,-259 116,-221 206,-221 206,-259"/>
<text text-anchor="middle" x="161" y="-247.8" font-family="Arial" font-size="9.00">2. DNS&#45;запрос</text>
<text text-anchor="middle" x="161" y="-237.8" font-family="Arial" font-size="9.00">Порт 8600</text>
<text text-anchor="middle" x="161" y="-227.8" font-family="Arial" font-size="9.00">К Consul серверу</text>
</g>
<!-- s1&#45;&gt;s2 -->
<g id="edge1" class="edge">
<title>s1&#45;&gt;s2</title>
<path fill="none" stroke="black" d="M161,-287.97C161,-287.97 161,-269.4 161,-269.4"/>
<polygon fill="black" stroke="black" points="164.5,-269.4 161,-259.4 157.5,-269.4 164.5,-269.4"/>
</g>
<!-- s3 -->
<g id="node3" class="node">
<title>s3</title>
<polygon fill="#e6f4ea" stroke="black" points="211.5,-192 110.5,-192 110.5,-154 211.5,-154 211.5,-192"/>
<text text-anchor="middle" x="161" y="-180.8" font-family="Arial" font-size="9.00">3. Consul проверяет</text>
<text text-anchor="middle" x="161" y="-170.8" font-family="Arial" font-size="9.00">Health status</text>
<text text-anchor="middle" x="161" y="-160.8" font-family="Arial" font-size="9.00">Только PASSING</text>
</g>
<!-- s2&#45;&gt;s3 -->
<g id="edge2" class="edge">
<title>s2&#45;&gt;s3</title>
<path fill="none" stroke="black" d="M161,-220.98C161,-220.98 161,-202.3 161,-202.3"/>
<polygon fill="black" stroke="black" points="164.5,-202.3 161,-192.3 157.5,-202.3 164.5,-202.3"/>
</g>
<!-- s4 -->
<g id="node4" class="node">
<title>s4</title>
<polygon fill="#f3e5f5" stroke="black" points="200,-125 122,-125 122,-67 200,-67 200,-125"/>
<text text-anchor="middle" x="161" y="-113.8" font-family="Arial" font-size="9.00">4. DNS&#45;ответ</text>
<text text-anchor="middle" x="161" y="-103.8" font-family="Arial" font-size="9.00">A: .101</text>
<text text-anchor="middle" x="161" y="-93.8" font-family="Arial" font-size="9.00">A: .102</text>
<text text-anchor="middle" x="161" y="-83.8" font-family="Arial" font-size="9.00">A: .103</text>
<text text-anchor="middle" x="161" y="-73.8" font-family="Arial" font-size="9.00">(Round&#45;Robin)</text>
</g>
<!-- s3&#45;&gt;s4 -->
<g id="edge3" class="edge">
<title>s3&#45;&gt;s4</title>
<path fill="none" stroke="black" d="M161,-153.97C161,-153.97 161,-135.01 161,-135.01"/>
<polygon fill="black" stroke="black" points="164.5,-135.01 161,-125.01 157.5,-135.01 164.5,-135.01"/>
</g>
<!-- s5 -->
<g id="node5" class="node">
<title>s5</title>
<polygon fill="#fce8e6" stroke="black" points="210.5,-38 111.5,-38 111.5,0 210.5,0 210.5,-38"/>
<text text-anchor="middle" x="161" y="-26.8" font-family="Arial" font-size="9.00">5. Клиент выбирает</text>
<text text-anchor="middle" x="161" y="-16.8" font-family="Arial" font-size="9.00">один IP</text>
<text text-anchor="middle" x="161" y="-6.8" font-family="Arial" font-size="9.00">Открывает HTTP</text>
</g>
<!-- s4&#45;&gt;s5 -->
<g id="edge4" class="edge">
<title>s4&#45;&gt;s5</title>
<path fill="none" stroke="black" d="M161,-66.89C161,-66.89 161,-48.36 161,-48.36"/>
<polygon fill="black" stroke="black" points="164.5,-48.36 161,-38.36 157.5,-48.36 164.5,-48.36"/>
</g>
</g>
</svg>
