<?xml version="1.0" encoding="UTF-8" standalone="no"?>
<!DOCTYPE svg PUBLIC "-//W3C//DTD SVG 1.1//EN"
 "http://www.w3.org/Graphics/SVG/1.1/DTD/svg11.dtd">
<!-- Generated by graphviz version 2.43.0 (0)
 -->
<!-- Title: DNS_Failover Pages: 1 -->
<svg width="410pt" height="596pt"
 viewBox="0.00 0.00 410.00 596.00" xmlns="http://www.w3.org/2000/svg" xmlns:xlink="http://www.w3.org/1999/xlink">
<g id="graph0" class="graph" transform="scale(1 1) rotate(0) translate(4 592)">
<title>DNS_Failover</title>
<polygon fill="white" stroke="transparent" points="-4,4 -4,-592 406,-592 406,4 -4,4"/>
<text text-anchor="middle" x="201" y="-568" font-family="Arial" font-size="20.00">DNS&#45;балансировка и отказоустойчивость</text>
<!-- normal -->
<g id="node1" class="node">
<title>normal</title>
<polygon fill="#c8e6c9" stroke="black" points="252,-558 120,-558 120,-461 252,-461 252,-558"/>
<text text-anchor="middle" x="186" y="-546" font-family="Arial" font-size="10.00">НОРМАЛЬНЫЙ РЕЖИМ</text>
<text text-anchor="middle" x="186" y="-535" font-family="Arial" font-size="10.00">webapp.service.consul:</text>
<text text-anchor="middle" x="186" y="-524" font-family="Arial" font-size="10.00">A: 192.168.122.101</text>
<text text-anchor="middle" x="186" y="-513" font-family="Arial" font-size="10.00">A: 192.168.122.102</text>
<text text-anchor="middle" x="186" y="-502" font-family="Arial" font-size="10.00">A: 192.168.122.103</text>
<text text-anchor="middle" x="186" y="-479" font-family="Arial" font-size="10.00">Все 3 ноды работают</text>
<text text-anchor="middle" x="186" y="-468" font-family="Arial" font-size="10.00">Health check: PASSING</text>
</g>
<!-- fail -->
<g id="node2" class="node">
<title>fail</title>
<polygon fill="#ffcdd2" stroke="black" points="247.5,-356 124.5,-356 124.5,-225 247.5,-225 247.5,-356"/>
<text text-anchor="middle" x="186" y="-344" font-family="Arial" font-size="10.00">ОТКАЗ web&#45;node1</text>
<text text-anchor="middle" x="186" y="-333" font-family="Arial" font-size="10.00">Consul health check:</text>
<text text-anchor="middle" x="186" y="-322" font-family="Arial" font-size="10.00">HTTP :80/ → FAIL</text>
<text text-anchor="middle" x="186" y="-311" font-family="Arial" font-size="10.00">TTL истекает</text>
<text text-anchor="middle" x="186" y="-300" font-family="Arial" font-size="10.00">Нода исключается</text>
<text text-anchor="middle" x="186" y="-277" font-family="Arial" font-size="10.00">DNS&#45;ответ:</text>
<text text-anchor="middle" x="186" y="-266" font-family="Arial" font-size="10.00">A: 192.168.122.102</text>
<text text-anchor="middle" x="186" y="-255" font-family="Arial" font-size="10.00">A: 192.168.122.103</text>
<text text-anchor="middle" x="186" y="-232" font-family="Arial" font-size="10.00">web&#45;node1: НЕТ в DNS</text>
</g>
<!-- normal&#45;&gt;fail -->
<g id="edge1" class="edge">
<title>normal&#45;&gt;fail</title>
<path fill="none" stroke="black" d="M186,-460.9C186,-460.9 186,-366.41 186,-366.41"/>
<polygon fill="black" stroke="black" points="189.5,-366.41 186,-356.41 182.5,-366.41 189.5,-366.41"/>
<text text-anchor="middle" x="234" y="-427.8" font-family="Times,serif" font-size="14.00">virsh destroy</text>
<text text-anchor="middle" x="234" y="-412.8" font-family="Times,serif" font-size="14.00">web&#45;node1</text>
<text text-anchor="middle" x="234" y="-381.8" font-family="Times,serif" font-size="14.00">10&#45;12 секунд</text>
</g>
<!-- recover -->
<g id="node3" class="node">
<title>recover</title>
<polygon fill="#c8e6c9" stroke="black" points="250.5,-120 121.5,-120 121.5,0 250.5,0 250.5,-120"/>
<text text-anchor="middle" x="186" y="-108" font-family="Arial" font-size="10.00">ВОССТАНОВЛЕНИЕ</text>
<text text-anchor="middle" x="186" y="-97" font-family="Arial" font-size="10.00">web&#45;node1 снова</text>
<text text-anchor="middle" x="186" y="-86" font-family="Arial" font-size="10.00">отвечает на health check</text>
<text text-anchor="middle" x="186" y="-75" font-family="Arial" font-size="10.00">Consul возвращает</text>
<text text-anchor="middle" x="186" y="-64" font-family="Arial" font-size="10.00">ноду в DNS</text>
<text text-anchor="middle" x="186" y="-41" font-family="Arial" font-size="10.00">DNS&#45;ответ:</text>
<text text-anchor="middle" x="186" y="-30" font-family="Arial" font-size="10.00">A: .101, .102, .103</text>
<text text-anchor="middle" x="186" y="-7" font-family="Arial" font-size="10.00">Автоматически!</text>
</g>
<!-- fail&#45;&gt;recover -->
<g id="edge2" class="edge">
<title>fail&#45;&gt;recover</title>
<path fill="none" stroke="black" d="M186,-224.76C186,-224.76 186,-130.31 186,-130.31"/>
<polygon fill="black" stroke="black" points="189.5,-130.31 186,-120.31 182.5,-130.31 189.5,-130.31"/>
<text text-anchor="middle" x="234" y="-191.8" font-family="Times,serif" font-size="14.00">virsh start</text>
<text text-anchor="middle" x="234" y="-176.8" font-family="Times,serif" font-size="14.00">web&#45;node1</text>
<text text-anchor="middle" x="234" y="-145.8" font-family="Times,serif" font-size="14.00">10&#45;12 секунд</text>
</g>
</g>
</svg>
