<?xml version="1.0" encoding="UTF-8" standalone="no"?>
<!DOCTYPE svg PUBLIC "-//W3C//DTD SVG 1.1//EN"
 "http://www.w3.org/Graphics/SVG/1.1/DTD/svg11.dtd">
<!-- Generated by graphviz version 2.43.0 (0)
 -->
<!-- Title: ExternalDNS Pages: 1 -->
<svg width="360pt" height="372pt"
 viewBox="0.00 0.00 360.00 372.00" xmlns="http://www.w3.org/2000/svg" xmlns:xlink="http://www.w3.org/1999/xlink">
<g id="graph0" class="graph" transform="scale(1 1) rotate(0) translate(4 368)">
<title>ExternalDNS</title>
<polygon fill="white" stroke="transparent" points="-4,4 -4,-368 356,-368 356,4 -4,4"/>
<text text-anchor="middle" x="176" y="-345.6" font-family="Arial" font-size="18.00">External&#45;DNS: интеграция Consul с BIND</text>
<!-- consul -->
<g id="node1" class="node">
<title>consul</title>
<polygon fill="#e6f4ea" stroke="black" points="217.75,-336 120.75,-336 120.75,-284 217.75,-284 217.75,-336"/>
<text text-anchor="middle" x="169.25" y="-324" font-family="Arial" font-size="10.00">Consul</text>
<text text-anchor="middle" x="169.25" y="-313" font-family="Arial" font-size="10.00">Health API</text>
<text text-anchor="middle" x="169.25" y="-302" font-family="Arial" font-size="10.00">/v1/health/service/</text>
<text text-anchor="middle" x="169.25" y="-291" font-family="Arial" font-size="10.00">webapp?passing</text>
</g>
<!-- script -->
<g id="node2" class="node">
<title>script</title>
<polygon fill="#fff3e0" stroke="black" points="227.25,-203 111.25,-203 111.25,-118 227.25,-118 227.25,-203"/>
<text text-anchor="middle" x="169.25" y="-191" font-family="Arial" font-size="10.00">external&#45;dns&#45;update.sh</text>
<text text-anchor="middle" x="169.25" y="-180" font-family="Arial" font-size="10.00">1. Запрашивает</text>
<text text-anchor="middle" x="169.25" y="-169" font-family="Arial" font-size="10.00"> &#160;&#160;здоровые инстансы</text>
<text text-anchor="middle" x="169.25" y="-158" font-family="Arial" font-size="10.00">2. Генерирует</text>
<text text-anchor="middle" x="169.25" y="-147" font-family="Arial" font-size="10.00"> &#160;&#160;DNS&#45;зону</text>
<text text-anchor="middle" x="169.25" y="-136" font-family="Arial" font-size="10.00">3. Обновляет BIND</text>
<text text-anchor="middle" x="169.25" y="-125" font-family="Arial" font-size="10.00">4. rndc reload</text>
</g>
<!-- consul&#45;&gt;script -->
<g id="edge1" class="edge">
<title>consul&#45;&gt;script</title>
<path fill="none" stroke="#34a853" stroke-width="2" d="M169.25,-283.96C169.25,-283.96 169.25,-213.2 169.25,-213.2"/>
<polygon fill="#34a853" stroke="#34a853" stroke-width="2" points="172.75,-213.2 169.25,-203.2 165.75,-213.2 172.75,-213.2"/>
<text text-anchor="middle" x="216.25" y="-254.8" font-family="Times,serif" font-size="14.00">JSON</text>
<text text-anchor="middle" x="216.25" y="-239.8" font-family="Times,serif" font-size="14.00">(IP здоровых</text>
<text text-anchor="middle" x="216.25" y="-224.8" font-family="Times,serif" font-size="14.00">инстансов)</text>
</g>
<!-- bind -->
<g id="node3" class="node">
<title>bind</title>
<polygon fill="#e8f0fe" stroke="black" points="137.25,-52 7.25,-52 7.25,0 137.25,0 137.25,-52"/>
<text text-anchor="middle" x="72.25" y="-40" font-family="Arial" font-size="10.00">BIND DNS&#45;сервер</text>
<text text-anchor="middle" x="72.25" y="-29" font-family="Arial" font-size="10.00">webapp.diveschool.spb.ru</text>
<text text-anchor="middle" x="72.25" y="-18" font-family="Arial" font-size="10.00">A: только здоровые IP</text>
<text text-anchor="middle" x="72.25" y="-7" font-family="Arial" font-size="10.00">TTL: 10 секунд</text>
</g>
<!-- script&#45;&gt;bind -->
<g id="edge2" class="edge">
<title>script&#45;&gt;bind</title>
<path fill="none" stroke="#fb8c00" stroke-width="2" d="M124.25,-117.94C124.25,-117.94 124.25,-62.25 124.25,-62.25"/>
<polygon fill="#fb8c00" stroke="#fb8c00" stroke-width="2" points="127.75,-62.25 124.25,-52.25 120.75,-62.25 127.75,-62.25"/>
<text text-anchor="middle" x="116.75" y="-88.8" font-family="Times,serif" font-size="14.00">Обновление</text>
<text text-anchor="middle" x="116.75" y="-73.8" font-family="Times,serif" font-size="14.00">зоны</text>
</g>
<!-- note -->
<g id="node4" class="node">
<title>note</title>
<polygon fill="#ffcdd2" stroke="black" points="338.75,-52 187.75,-52 187.75,0 344.75,0 344.75,-46 338.75,-52"/>
<polyline fill="none" stroke="black" points="338.75,-52 338.75,-46 "/>
<polyline fill="none" stroke="black" points="344.75,-46 338.75,-46 "/>
<text text-anchor="middle" x="266.25" y="-40" font-family="Arial" font-size="10.00">Это демонстрация концепции</text>
<text text-anchor="middle" x="266.25" y="-29" font-family="Arial" font-size="10.00">external&#45;dns. В production</text>
<text text-anchor="middle" x="266.25" y="-18" font-family="Arial" font-size="10.00">используется API Cloudflare,</text>
<text text-anchor="middle" x="266.25" y="-7" font-family="Arial" font-size="10.00">AWS Route53, или PowerDNS.</text>
</g>
<!-- script&#45;&gt;note -->
<g id="edge3" class="edge">
<title>script&#45;&gt;note</title>
<path fill="none" stroke="black" stroke-dasharray="5,2" d="M207.5,-117.94C207.5,-117.94 207.5,-62.25 207.5,-62.25"/>
<polygon fill="black" stroke="black" points="211,-62.25 207.5,-52.25 204,-62.25 211,-62.25"/>
</g>
</g>
</svg>
