<?xml version="1.0" encoding="UTF-8" standalone="no"?>
<!DOCTYPE svg PUBLIC "-//W3C//DTD SVG 1.1//EN"
 "http://www.w3.org/Graphics/SVG/1.1/DTD/svg11.dtd">
<!-- Generated by graphviz version 2.43.0 (0)
 -->
<!-- Title: TechStack Pages: 1 -->
<svg width="439pt" height="564pt"
 viewBox="0.00 0.00 439.00 564.00" xmlns="http://www.w3.org/2000/svg" xmlns:xlink="http://www.w3.org/1999/xlink">
<g id="graph0" class="graph" transform="scale(1 1) rotate(0) translate(4 560)">
<title>TechStack</title>
<polygon fill="white" stroke="transparent" points="-4,4 -4,-560 435,-560 435,4 -4,4"/>
<text text-anchor="middle" x="215.5" y="-536" font-family="Arial" font-size="20.00">Технологический стек Consul + External&#45;DNS</text>
<g id="clust1" class="cluster">
<title>cluster_iaac</title>
<polygon fill="#e0e0e0" stroke="black" points="78.5,-436 78.5,-518 368.5,-518 368.5,-436 78.5,-436"/>
<text text-anchor="middle" x="223.5" y="-503.6" font-family="Arial" font-size="13.00">Infrastructure as Code</text>
</g>
<g id="clust2" class="cluster">
<title>cluster_consul</title>
<polygon fill="#e6f4ea" stroke="black" points="63.5,-295 63.5,-413 219.5,-413 219.5,-295 63.5,-295"/>
<text text-anchor="middle" x="141.5" y="-398.6" font-family="Arial" font-size="13.00">Consul Cluster</text>
</g>
<g id="clust3" class="cluster">
<title>cluster_dns</title>
<polygon fill="#fff3e0" stroke="black" points="62.5,-127 62.5,-258 220.5,-258 220.5,-127 62.5,-127"/>
<text text-anchor="middle" x="141.5" y="-243.6" font-family="Arial" font-size="13.00">DNS и балансировка</text>
</g>
<g id="clust4" class="cluster">
<title>cluster_web</title>
<polygon fill="#fce8e6" stroke="black" points="183.5,-8 183.5,-90 287.5,-90 287.5,-8 183.5,-8"/>
<text text-anchor="middle" x="235.5" y="-75.6" font-family="Arial" font-size="13.00">Веб&#45;портал</text>
</g>
<!-- tf -->
<g id="node1" class="node">
<title>tf</title>
<polygon fill="#bdbdbd" stroke="black" points="182,-484 87,-484 87,-448 182,-448 182,-484"/>
<text text-anchor="middle" x="134.5" y="-469.2" font-family="Arial" font-size="11.00">Terraform</text>
<text text-anchor="middle" x="134.5" y="-457.2" font-family="Arial" font-size="11.00">Создание 6 ВМ</text>
</g>
<!-- consul -->
<g id="node3" class="node">
<title>consul</title>
<polygon fill="#a5d6a7" stroke="black" points="211.5,-383 71.5,-383 71.5,-303 211.5,-303 211.5,-383"/>
<text text-anchor="middle" x="141.5" y="-370.2" font-family="Arial" font-size="11.00">Consul 1.18</text>
<text text-anchor="middle" x="141.5" y="-358.2" font-family="Arial" font-size="11.00">Service Discovery</text>
<text text-anchor="middle" x="141.5" y="-346.2" font-family="Arial" font-size="11.00">DNS&#45;сервер (порт 8600)</text>
<text text-anchor="middle" x="141.5" y="-334.2" font-family="Arial" font-size="11.00">HTTP API (порт 8500)</text>
<text text-anchor="middle" x="141.5" y="-322.2" font-family="Arial" font-size="11.00">Health Checks</text>
<text text-anchor="middle" x="141.5" y="-310.2" font-family="Arial" font-size="11.00">Raft Consensus</text>
</g>
<!-- tf&#45;&gt;consul -->
<g id="edge1" class="edge">
<title>tf&#45;&gt;consul</title>
<path fill="none" stroke="black" stroke-dasharray="1,5" d="M134.5,-447.85C134.5,-447.85 134.5,-393.11 134.5,-393.11"/>
<polygon fill="black" stroke="black" points="138,-393.11 134.5,-383.11 131,-393.11 138,-393.11"/>
</g>
<!-- ansible -->
<g id="node2" class="node">
<title>ansible</title>
<polygon fill="#bdbdbd" stroke="black" points="360.5,-488 240.5,-488 240.5,-444 360.5,-444 360.5,-488"/>
<text text-anchor="middle" x="300.5" y="-475.2" font-family="Arial" font-size="11.00">Ansible</text>
<text text-anchor="middle" x="300.5" y="-463.2" font-family="Arial" font-size="11.00">Роли: consul&#45;server,</text>
<text text-anchor="middle" x="300.5" y="-451.2" font-family="Arial" font-size="11.00">consul&#45;client, webapp</text>
</g>
<!-- ansible&#45;&gt;consul -->
<g id="edge2" class="edge">
<title>ansible&#45;&gt;consul</title>
<path fill="none" stroke="black" stroke-dasharray="5,2" d="M240.45,-466C217.5,-466 196.75,-466 196.75,-466 196.75,-466 196.75,-393.27 196.75,-393.27"/>
<polygon fill="black" stroke="black" points="200.25,-393.27 196.75,-383.27 193.25,-393.27 200.25,-393.27"/>
</g>
<!-- nginx -->
<g id="node5" class="node">
<title>nginx</title>
<polygon fill="#ffcdd2" stroke="black" points="280,-60 191,-60 191,-16 280,-16 280,-60"/>
<text text-anchor="middle" x="235.5" y="-47.2" font-family="Arial" font-size="11.00">Nginx</text>
<text text-anchor="middle" x="235.5" y="-35.2" font-family="Arial" font-size="11.00">web&#45;node1,2,3</text>
<text text-anchor="middle" x="235.5" y="-23.2" font-family="Arial" font-size="11.00">:80</text>
</g>
<!-- ansible&#45;&gt;nginx -->
<g id="edge3" class="edge">
<title>ansible&#45;&gt;nginx</title>
<path fill="none" stroke="black" stroke-dasharray="5,2" d="M260.25,-443.89C260.25,-443.89 260.25,-70.23 260.25,-70.23"/>
<polygon fill="black" stroke="black" points="263.75,-70.23 260.25,-60.23 256.75,-70.23 263.75,-70.23"/>
</g>
<!-- dns -->
<g id="node4" class="node">
<title>dns</title>
<polygon fill="#ffe0b2" stroke="black" points="212,-228 71,-228 71,-135 212,-135 212,-228"/>
<text text-anchor="middle" x="141.5" y="-215.2" font-family="Arial" font-size="11.00">Consul DNS</text>
<text text-anchor="middle" x="141.5" y="-203.2" font-family="Arial" font-size="11.00">webapp.service.consul</text>
<text text-anchor="middle" x="141.5" y="-191.2" font-family="Arial" font-size="11.00">→ IP здоровых нод</text>
<text text-anchor="middle" x="141.5" y="-166.2" font-family="Arial" font-size="11.00">External&#45;DNS скрипт</text>
<text text-anchor="middle" x="141.5" y="-154.2" font-family="Arial" font-size="11.00">Обновление BIND</text>
<text text-anchor="middle" x="141.5" y="-142.2" font-family="Arial" font-size="11.00">webapp.diveschool.spb.ru</text>
</g>
<!-- consul&#45;&gt;dns -->
<g id="edge4" class="edge">
<title>consul&#45;&gt;dns</title>
<path fill="none" stroke="#fb8c00" stroke-width="2" d="M141.5,-302.66C141.5,-302.66 141.5,-238.18 141.5,-238.18"/>
<polygon fill="#fb8c00" stroke="#fb8c00" stroke-width="2" points="145,-238.18 141.5,-228.18 138,-238.18 145,-238.18"/>
<text text-anchor="middle" x="185.5" y="-269.8" font-family="Times,serif" font-size="14.00">DNS&#45;записи</text>
</g>
<!-- dns&#45;&gt;nginx -->
<g id="edge5" class="edge">
<title>dns&#45;&gt;nginx</title>
<path fill="none" stroke="#ea4335" stroke-width="2" d="M201.5,-134.91C201.5,-134.91 201.5,-70.28 201.5,-70.28"/>
<polygon fill="#ea4335" stroke="#ea4335" stroke-width="2" points="205,-70.28 201.5,-60.28 198,-70.28 205,-70.28"/>
<text text-anchor="middle" x="204" y="-101.8" font-family="Times,serif" font-size="14.00">резолвит</text>
</g>
</g>
</svg>
